<svg xmlns="http://www.w3.org/2000/svg" xmlns:xlink="http://www.w3.org/1999/xlink">
<symbol width="32" height="32" viewBox="0 0 32 32" id="emailIcon">
    <path d="M16.1875 4.00001C8.82276 3.89223 2.91462 10.486 4.15625 18.0313C4.99816 23.1517 9.20505 27.1814 14.3438 27.875C17.8086 28.3429 21.0478 27.3431 23.5 25.375L22.25 23.8125C20.2042 25.4544 17.5129 26.3004 14.5938 25.9063C10.3385 25.3319 6.85234 21.9523 6.15625 17.7188C5.10789 11.348 9.991 5.90978 16.1563 6.00001C21.411 6.07707 25.8405 10.435 26 15.6875C26.0035 15.8001 26 15.9095 26 16.0313C25.992 18.2342 24.2081 20.0008 22 20C20.883 19.9993 20 19.1157 20 18V17.5V14.5V10H18V10.7813C17.2815 10.2946 16.4275 10 15.5 10C13.0266 10 11 12.0266 11 14.5V17.5C11 19.9734 13.0266 22 15.5 22C16.8479 22 18.0482 21.3855 18.875 20.4375C19.6095 21.3716 20.7288 21.9992 22 22C25.284 22.0012 27.988 19.3203 28 16.0313C28 15.899 28.0045 15.7684 28 15.625C27.8076 9.28949 22.5247 4.09294 16.1875 4.00001ZM15.5 12C16.8926 12 18 13.1074 18 14.5V17.5C18 18.8926 16.8926 20 15.5 20C14.1074 20 13 18.8926 13 17.5V14.5C13 13.1074 14.1074 12 15.5 12Z" fill="white"/>
</symbol>

<symbol width="28" height="28" viewBox="0 0 28 28" id="footerPhone">
    <path d="M19.0712 24.6126C18.2157 24.6063 17.364 24.4989 16.5337 24.2927C13.6664 23.6009 10.7138 21.846 8.22117 19.3512C5.72851 16.8563 3.9714 13.9032 3.2796 11.0387C2.55117 8.02538 3.0707 5.44741 4.74086 3.77725L5.21773 3.30038C5.6504 2.86858 6.2367 2.62607 6.84796 2.62607C7.45923 2.62607 8.04553 2.86858 8.4782 3.30038L11.2186 6.04022C11.6507 6.47274 11.8934 7.0591 11.8934 7.67045C11.8934 8.28181 11.6507 8.86817 11.2186 9.30069L9.59984 10.9189C10.3759 12.2806 11.4313 13.6434 12.6787 14.8908C13.9262 16.1383 15.2901 17.1943 16.6512 17.9703L18.2694 16.3515C18.4835 16.1374 18.7377 15.9675 19.0174 15.8517C19.2971 15.7358 19.5969 15.6761 19.8997 15.6761C20.2025 15.6761 20.5023 15.7358 20.782 15.8517C21.0617 15.9675 21.3159 16.1374 21.5299 16.3515L24.2698 19.0914C24.7019 19.5238 24.9447 20.11 24.9447 20.7214C24.9447 21.3327 24.7019 21.919 24.2698 22.3513L23.7923 22.8282C22.6149 24.0078 20.9852 24.6126 19.0712 24.6126ZM6.84796 4.26561C6.76065 4.26518 6.67412 4.28217 6.59346 4.3156C6.51279 4.34904 6.43961 4.39823 6.3782 4.4603L5.90078 4.93717C4.65007 6.18788 4.28476 8.21842 4.8721 10.6515C5.4939 13.2289 7.0946 15.9069 9.3789 18.1907C11.6632 20.4744 14.3407 22.0735 16.9187 22.6975C19.3523 23.2848 21.3817 22.9195 22.6324 21.6688L23.1093 21.1919C23.2339 21.0672 23.3039 20.8982 23.3039 20.7219C23.3039 20.5456 23.2339 20.3766 23.1093 20.2519L20.37 17.512C20.2453 17.3874 20.0762 17.3174 19.9 17.3174C19.7237 17.3174 19.5546 17.3874 19.4299 17.512L17.3786 19.5633C17.2555 19.6865 17.0964 19.7673 16.9244 19.794C16.7523 19.8208 16.5762 19.7921 16.4216 19.7121C14.7399 18.8426 13.0446 17.5765 11.5188 16.0508C9.99304 14.525 8.72976 12.8308 7.85804 11.1491C7.77799 10.9945 7.7492 10.8185 7.77585 10.6464C7.80249 10.4744 7.88318 10.3152 8.00625 10.1921L10.0581 8.14077C10.1827 8.01607 10.2527 7.84701 10.2527 7.67073C10.2527 7.49445 10.1827 7.32539 10.0581 7.20069L7.31828 4.4603C7.25667 4.39833 7.18338 4.34922 7.10264 4.3158C7.02191 4.28238 6.93534 4.26532 6.84796 4.26561Z" fill="white"/>
    <path d="M19.9473 14.7509C19.7297 14.7509 19.5211 14.6644 19.3672 14.5106C19.2134 14.3568 19.127 14.1481 19.127 13.9305C19.1254 12.4915 18.553 11.1118 17.5355 10.0941C16.5179 9.07648 15.1383 8.504 13.6992 8.50226C13.4817 8.50226 13.273 8.41583 13.1192 8.26199C12.9653 8.10816 12.8789 7.89951 12.8789 7.68195C12.8789 7.46439 12.9653 7.25574 13.1192 7.1019C13.273 6.94806 13.4817 6.86163 13.6992 6.86163C17.5968 6.86163 20.7676 10.0335 20.7676 13.9305C20.7676 14.1481 20.6812 14.3568 20.5273 14.5106C20.3735 14.6644 20.1648 14.7509 19.9473 14.7509Z" fill="white"/>
    <path d="M23.4145 14.7508C23.1969 14.7508 22.9882 14.6644 22.8344 14.5106C22.6806 14.3567 22.5941 14.1481 22.5941 13.9305C22.5941 9.02561 18.602 5.03506 13.6992 5.03506C13.4817 5.03506 13.273 4.94864 13.1192 4.7948C12.9653 4.64096 12.8789 4.43231 12.8789 4.21475C12.8789 3.99719 12.9653 3.78854 13.1192 3.6347C13.273 3.48087 13.4817 3.39444 13.6992 3.39444C19.5087 3.39444 24.2348 8.12108 24.2348 13.9305C24.2348 14.1481 24.1483 14.3567 23.9945 14.5106C23.8407 14.6644 23.632 14.7508 23.4145 14.7508Z" fill="white"/>    
</symbol>

<symbol width="18" height="18" viewBox="0 0 18 18" id="headerPhone">
    <path d="M17 12.5C15.75 12.5 14.55 12.3 13.43 11.93C13.08 11.82 12.69 11.9 12.41 12.17L10.21 14.37C7.38 12.93 5.06 10.62 3.62 7.78L5.82 5.57C6.1 5.31 6.18 4.92 6.07 4.57C5.7 3.45 5.5 2.25 5.5 1C5.5 0.45 5.05 0 4.5 0H1C0.45 0 0 0.45 0 1C0 10.39 7.61 18 17 18C17.55 18 18 17.55 18 17V13.5C18 12.95 17.55 12.5 17 12.5ZM16 9H18C18 4.03 13.97 0 9 0V2C12.87 2 16 5.13 16 9ZM12 9H14C14 6.24 11.76 4 9 4V6C10.66 6 12 7.34 12 9Z" fill="#1B1D1F"/>
</symbol>

<symbol width="27" height="27" viewBox="0 0 27 27" id="instagramIcon" fill="rgba(26,130,196,1)">
    <path d="M8.64003 24.84H18.36C21.9386 24.84 24.84 21.9386 24.84 18.36V8.64C24.84 5.06142 21.9386 2.16 18.36 2.16H8.64003C5.06145 2.16 2.16003 5.06142 2.16003 8.64V18.36C2.16003 21.9386 5.06145 24.84 8.64003 24.84Z" stroke="white" stroke-width="2" stroke-miterlimit="10"/>
    <path d="M13.5 8.10001C12.0678 8.10001 10.6943 8.66893 9.6816 9.68163C8.6689 10.6943 8.09998 12.0678 8.09998 13.5C8.09998 14.9322 8.6689 16.3057 9.6816 17.3184C10.6943 18.3311 12.0678 18.9 13.5 18.9C14.9321 18.9 16.3057 18.3311 17.3184 17.3184C18.331 16.3057 18.9 14.9322 18.9 13.5C18.9 12.0678 18.331 10.6943 17.3184 9.68163C16.3057 8.66893 14.9321 8.10001 13.5 8.10001Z" stroke="white" stroke-width="2" stroke-miterlimit="10"/>
    <path d="M19.98 5.94C19.6936 5.94 19.4189 6.05379 19.2163 6.25633C19.0138 6.45887 18.9 6.73357 18.9 7.02C18.9 7.30644 19.0138 7.58114 19.2163 7.78368C19.4189 7.98622 19.6936 8.1 19.98 8.1C20.2665 8.1 20.5412 7.98622 20.7437 7.78368C20.9462 7.58114 21.06 7.30644 21.06 7.02C21.06 6.73357 20.9462 6.45887 20.7437 6.25633C20.5412 6.05379 20.2665 5.94 19.98 5.94Z" fill="white"/>
</symbol>

<symbol width="28" height="28" viewBox="0 0 28 28" id="telegramIcon">
    <path d="M25.7269 2.48404L0.920243 12.0996C-0.078012 12.5473 -0.415657 13.4441 0.678921 13.9307L7.04296 15.9636L22.4302 6.4048C23.2704 5.80469 24.1305 5.96472 23.3904 6.62483L10.1748 18.6525L9.75963 23.7426C10.1442 24.5286 10.8482 24.5322 11.2973 24.1416L14.9536 20.6641L21.2156 25.3774C22.67 26.2429 23.4614 25.6844 23.7743 24.0981L27.8816 4.54893C28.3081 2.59626 27.5808 1.73592 25.7269 2.48404Z" fill="white"/>
</symbol>

<symbol width="28" height="28" viewBox="0 0 28 28" id="viberIcon">
    <path d="M13.2982 0.00425742C11.0512 0.0313824 6.22033 0.400633 3.51833 2.87951C1.50846 4.87101 0.806709 7.81538 0.724459 11.4563C0.656209 15.084 0.573959 21.8968 7.14083 23.7518V26.5771C7.14083 26.5771 7.09971 27.7076 7.84696 27.9395C8.76746 28.2309 9.29158 27.3611 10.1666 26.4266L11.7985 24.5813C16.2916 24.9549 19.733 24.0939 20.1293 23.9661C21.0411 23.6748 26.1765 23.0185 27.0156 16.2049C27.8766 9.16813 26.5965 4.73451 24.2856 2.72901H24.2716C23.5742 2.08676 20.7716 0.0445074 14.5101 0.0217574C14.5101 0.0217574 14.0455 -0.00974258 13.2982 0.00338242V0.00425742ZM13.3752 1.98263C14.0131 1.97826 14.4007 2.00538 14.4007 2.00538C19.7006 2.01938 22.2302 3.61451 22.827 4.15176C24.773 5.81951 25.7757 9.81651 25.0416 15.6913C24.3442 21.3875 20.1792 21.748 19.4083 21.9939C19.0802 22.0989 16.0492 22.8461 12.2307 22.6003C12.2307 22.6003 9.38696 26.032 8.49796 26.9158C8.35708 27.0706 8.19258 27.1161 8.08758 27.0934C7.93708 27.0566 7.89158 26.8703 7.90033 26.6148L7.92746 21.9256C2.35808 20.3856 2.68621 14.5748 2.74571 11.5394C2.81396 8.50401 3.38358 6.02076 5.07933 4.33901C7.36221 2.27488 11.4642 1.99663 13.3735 1.98263H13.3752ZM13.7952 5.01713C13.6036 5.01276 13.4443 5.17201 13.4443 5.36363C13.4443 5.55963 13.6036 5.71451 13.7952 5.71451C15.5496 5.68301 17.241 6.34801 18.4983 7.56951C19.7697 8.80413 20.3892 10.4631 20.4128 12.6323C20.4128 12.8239 20.5677 12.9831 20.7637 12.9831V12.9691C20.9553 12.9691 21.1146 12.8143 21.1146 12.6226C21.2012 10.5585 20.4356 8.55301 18.9997 7.06726C17.6146 5.71363 15.8593 5.01626 13.7952 5.01626V5.01713ZM9.18308 5.81951C8.93721 5.78276 8.68171 5.83351 8.46733 5.96038H8.44896C7.97471 6.23863 7.53283 6.58951 7.11371 7.05851C6.79433 7.42776 6.62108 7.80138 6.57558 8.16101C6.54846 8.37538 6.56683 8.58976 6.63071 8.79451L6.65346 8.80851C7.01308 9.86551 7.48296 10.8823 8.05696 11.8395C8.79546 13.1835 9.70633 14.4278 10.7642 15.5399L10.7957 15.5854L10.8456 15.6221L10.8771 15.6589L10.9138 15.6904C12.0303 16.7526 13.2746 17.6635 14.6238 18.4108C16.1638 19.249 17.0983 19.6454 17.6592 19.8099V19.8186C17.8237 19.8685 17.9733 19.8913 18.1238 19.8913C18.6025 19.8545 19.054 19.6638 19.4092 19.34C19.8651 18.9296 20.2247 18.479 20.4942 18.0004V17.9916C20.7628 17.4859 20.6718 17.0073 20.2842 16.6835C19.5098 16.0045 18.6663 15.4025 17.7773 14.8836C17.1806 14.5599 16.5742 14.7559 16.3283 15.084L15.8042 15.7446C15.5356 16.0728 15.0473 16.0273 15.0473 16.0273L15.0333 16.036C11.3925 15.1059 10.4212 11.4195 10.4212 11.4195C10.4212 11.4195 10.3757 10.9181 10.7126 10.6626L11.3688 10.1341C11.683 9.87863 11.9017 9.27313 11.5648 8.67551C11.0495 7.78213 10.4483 6.94388 9.76933 6.16863C9.62321 5.98663 9.41408 5.86326 9.18133 5.81776L9.18308 5.81951ZM14.4007 6.85901C13.9361 6.85901 13.9361 7.56076 14.4051 7.56076C15.5715 7.57913 16.6836 8.06213 17.4947 8.90038C18.2332 9.71588 18.6156 10.8009 18.543 11.899C18.5473 12.0906 18.7022 12.2455 18.8938 12.2455L18.9078 12.2639C19.0995 12.2639 19.2587 12.1046 19.2587 11.913C19.2902 10.5226 18.858 9.35626 18.0101 8.42176C17.1578 7.48726 15.9687 6.96313 14.4506 6.85901C14.4322 6.85901 14.4191 6.85901 14.4007 6.85901ZM14.9756 8.74551C14.497 8.73151 14.4786 9.44726 14.9528 9.46126C16.1061 9.52076 16.6661 10.1035 16.7396 11.3023C16.744 11.4939 16.8988 11.6444 17.0861 11.6444H17.1001C17.2961 11.6356 17.451 11.4668 17.437 11.2708C17.3547 9.70801 16.5025 8.82776 14.9896 8.74638C14.9852 8.74638 14.9808 8.74638 14.9756 8.74638V8.74551Z" fill="white"/>
</symbol>

<symbol width="36" height="36" viewBox="0 0 36 36" id="whatsappIcon">
    <path d="M32 13.6394C32 21.1724 25.8465 27.2788 18.2545 27.2788C15.8443 27.2788 13.58 26.6628 11.6101 25.5817L4 28L6.48111 20.682C5.22951 18.6268 4.50867 16.2164 4.50867 13.6394C4.50867 6.10649 10.6628 0 18.2545 0C25.8472 0 32 6.10649 32 13.6394ZM18.2545 2.17218C11.8817 2.17218 6.69796 7.3164 6.69796 13.6394C6.69796 16.1485 7.51587 18.4722 8.89938 20.3625L7.45551 24.6213L11.8966 23.2098C13.7213 24.4079 15.9072 25.1067 18.2548 25.1067C24.6267 25.1067 29.8113 19.9631 29.8113 13.64C29.8113 7.31702 24.627 2.17218 18.2545 2.17218ZM25.1957 16.7807C25.1108 16.6416 24.8864 16.5576 24.5498 16.3906C24.2126 16.2235 22.5556 15.4143 22.2476 15.3032C21.9387 15.1919 21.7134 15.1359 21.4891 15.4703C21.2648 15.8051 20.6189 16.5576 20.422 16.7807C20.2254 17.0044 20.0291 17.0324 19.6918 16.865C19.3552 16.698 18.2697 16.3445 16.9827 15.2059C15.9812 14.3198 15.3048 13.226 15.1082 12.8909C14.9119 12.5564 15.0877 12.3757 15.256 12.2092C15.4078 12.0593 15.5932 11.8188 15.7616 11.6237C15.9305 11.4284 15.9865 11.2893 16.0982 11.0659C16.2111 10.8428 16.1548 10.6478 16.0702 10.4801C15.9862 10.313 15.3117 8.66787 15.0311 7.99836C14.7504 7.32947 14.4701 7.44084 14.2732 7.44084C14.0769 7.44084 13.852 7.41284 13.6273 7.41284C13.4027 7.41284 13.0375 7.49653 12.7285 7.83098C12.4199 8.16573 11.5497 8.97462 11.5497 10.6195C11.5497 12.2646 12.7565 13.8541 12.9255 14.0768C13.0938 14.2996 15.2557 17.7853 18.681 19.124C22.1067 20.4621 22.1067 20.0156 22.7245 19.9596C23.3418 19.904 24.7175 19.1511 24.9994 18.3708C25.2794 17.5893 25.2794 16.9201 25.1957 16.7807Z" fill="white"/>
</symbol>
</svg>